<svg width="23" height="19" viewBox="0 0 23 19" fill="none" xmlns="http://www.w3.org/2000/svg">
<path d="M8.84931 18.0041C8.61423 18.0055 8.38828 17.9116 8.22137 17.7431L0.261609 9.64292C0.0941779 9.47393 0 9.24389 0 9.00391C0 8.76393 0.0941779 8.53389 0.261609 8.36489L8.22137 0.264709C8.44571 0.0364112 8.7727 -0.0527493 9.07915 0.0308135C9.3856 0.114376 9.62497 0.357967 9.70709 0.669828C9.7892 0.981689 9.70159 1.31444 9.47725 1.54274L2.13658 9.00391L9.47725 16.4651C9.64468 16.6341 9.73886 16.8641 9.73886 17.1041C9.73886 17.3441 9.64468 17.5741 9.47725 17.7431C9.31034 17.9116 9.08439 18.0055 8.84931 18.0041Z" fill="#4A4543"/>
<path d="M22.1156 9.90392H0.889545C0.401094 9.90392 0.00512695 9.50097 0.00512695 9.0039C0.00512695 8.50683 0.401094 8.10388 0.889545 8.10388H22.1156C22.604 8.10388 23 8.50683 23 9.0039C23 9.50097 22.604 9.90392 22.1156 9.90392Z" fill="#4A4543"/>
</svg>
