<svg width="51" height="14" viewBox="0 0 51 14" fill="none" xmlns="http://www.w3.org/2000/svg">
<path d="M4.35956 1.832H0.455563V13H4.35956C7.92756 13 10.2476 10.808 10.2476 7.432C10.2476 4.04 7.92756 1.832 4.35956 1.832ZM2.69556 11.096V3.72H4.27956C6.63156 3.72 7.95956 5.112 7.95956 7.432C7.95956 9.752 6.63156 11.096 4.27956 11.096H2.69556ZM16.7323 5.832C17.8843 5.832 18.8123 6.568 18.8443 7.736H14.6363C14.8123 6.52 15.6603 5.832 16.7323 5.832ZM20.9403 10.216H18.5243C18.2363 10.808 17.7083 11.288 16.7483 11.288C15.6283 11.288 14.7323 10.552 14.6203 9.24H21.1003C21.1483 8.952 21.1643 8.664 21.1643 8.376C21.1643 5.736 19.3563 3.992 16.7963 3.992C14.1723 3.992 12.3483 5.768 12.3483 8.568C12.3483 11.352 14.2203 13.144 16.7963 13.144C18.9883 13.144 20.4603 11.848 20.9403 10.216ZM24.1513 10.248C24.1513 12.28 25.2873 13 26.9833 13H28.3913V11.112H27.3513C26.6473 11.112 26.4073 10.856 26.4073 10.264V5.976H28.3913V4.136H26.4073V1.944H24.1513V4.136H23.0953V5.976H24.1513V10.248ZM30.4264 8.536C30.4264 11.304 32.2184 13.144 34.4584 13.144C35.8664 13.144 36.8744 12.472 37.4024 11.704V13H39.6584V4.136H37.4024V5.4C36.8744 4.664 35.8984 3.992 34.4744 3.992C32.2184 3.992 30.4264 5.768 30.4264 8.536ZM37.4024 8.568C37.4024 10.248 36.2824 11.176 35.0504 11.176C33.8504 11.176 32.7144 10.216 32.7144 8.536C32.7144 6.856 33.8504 5.96 35.0504 5.96C36.2824 5.96 37.4024 6.888 37.4024 8.568ZM42.8462 13H45.0862V4.136H42.8462V13ZM43.9822 3.08C44.7662 3.08 45.3582 2.504 45.3582 1.768C45.3582 1.032 44.7662 0.455999 43.9822 0.455999C43.1822 0.455999 42.6062 1.032 42.6062 1.768C42.6062 2.504 43.1822 3.08 43.9822 3.08ZM48.2993 13H50.5393V1.16H48.2993V13Z" fill="#4A4543"/>
</svg>
