<svg width="23" height="20" viewBox="0 0 23 20" fill="none" xmlns="http://www.w3.org/2000/svg">
  <path
    d="M0 0.692308C-0.552285 0.692308 -1 1.14002 -1 1.69231C-1 2.24459 -0.552285 2.69231 0 2.69231V0.692308ZM22 2.69231C22.5523 2.69231 23 2.24459 23 1.69231C23 1.14002 22.5523 0.692308 22 0.692308V2.69231ZM0 9C-0.552285 9 -1 9.44772 -1 10C-1 10.5523 -0.552285 11 0 11V9ZM22 11C22.5523 11 23 10.5523 23 10C23 9.44772 22.5523 9 22 9V11ZM0 17.3077C-0.552285 17.3077 -1 17.7554 -1 18.3077C-1 18.86 -0.552285 19.3077 0 19.3077V17.3077ZM9.625 19.3077C10.1773 19.3077 10.625 18.86 10.625 18.3077C10.625 17.7554 10.1773 17.3077 9.625 17.3077V19.3077ZM0 2.69231H22V0.692308H0V2.69231ZM0 11H22V9H0V11ZM0 19.3077H9.625V17.3077H0V19.3077Z"
    fill="#4A4543"
  />
</svg>
